ModelForces
version=1
nRows=4
nColumns=155
inDegrees=no

This file contains the forces exerted on a model during a simulation.

A force is a generalized force, meaning that it can be either a force (N) or a torque (Nm).

Units are S.I. units (second, meters, Newtons, ...)
Angles are in degrees.

endheader
time	glut_med1_r	glut_med2_r	glut_med3_r	glut_min1_r	glut_min2_r	glut_min3_r	semimem_r	semiten_r	bifemlh_r	bifemsh_r	sar_r	add_long_r	add_brev_r	add_mag1_r	add_mag2_r	add_mag3_r	tfl_r	pect_r	grac_r	glut_max1_r	glut_max2_r	glut_max3_r	iliacus_r	psoas_r	quad_fem_r	gem_r	peri_r	rect_fem_r	vas_med_r	vas_int_r	vas_lat_r	med_gas_r	lat_gas_r	soleus_r	tib_post_r	flex_dig_r	flex_hal_r	tib_ant_r	per_brev_r	per_long_r	per_tert_r	ext_dig_r	ext_hal_r	glut_med1_l	glut_med2_l	glut_med3_l	glut_min1_l	glut_min2_l	glut_min3_l	semimem_l	semiten_l	bifemlh_l	bifemsh_l	sar_l	add_long_l	add_brev_l	add_mag1_l	add_mag2_l	add_mag3_l	tfl_l	pect_l	grac_l	glut_max1_l	glut_max2_l	glut_max3_l	iliacus_l	psoas_l	quad_fem_l	gem_l	peri_l	rect_fem_l	vas_med_l	vas_int_l	vas_lat_l	med_gas_l	lat_gas_l	soleus_l	tib_post_l	flex_dig_l	flex_hal_l	tib_ant_l	per_brev_l	per_long_l	per_tert_l	ext_dig_l	ext_hal_l	ercspn_r	ercspn_l	intobl_r	intobl_l	extobl_r	extobl_l	femur_lat_meniscii_r.femur_lat_r.force.X	femur_lat_meniscii_r.femur_lat_r.force.Y	femur_lat_meniscii_r.femur_lat_r.force.Z	femur_lat_meniscii_r.femur_lat_r.torque.X	femur_lat_meniscii_r.femur_lat_r.torque.Y	femur_lat_meniscii_r.femur_lat_r.torque.Z	femur_lat_meniscii_r.meniscus_lat_r.force.X	femur_lat_meniscii_r.meniscus_lat_r.force.Y	femur_lat_meniscii_r.meniscus_lat_r.force.Z	femur_lat_meniscii_r.meniscus_lat_r.torque.X	femur_lat_meniscii_r.meniscus_lat_r.torque.Y	femur_lat_meniscii_r.meniscus_lat_r.torque.Z	femur_med_meniscii_r.femur_med_r.force.X	femur_med_meniscii_r.femur_med_r.force.Y	femur_med_meniscii_r.femur_med_r.force.Z	femur_med_meniscii_r.femur_med_r.torque.X	femur_med_meniscii_r.femur_med_r.torque.Y	femur_med_meniscii_r.femur_med_r.torque.Z	femur_med_meniscii_r.meniscus_med_r.force.X	femur_med_meniscii_r.meniscus_med_r.force.Y	femur_med_meniscii_r.meniscus_med_r.force.Z	femur_med_meniscii_r.meniscus_med_r.torque.X	femur_med_meniscii_r.meniscus_med_r.torque.Y	femur_med_meniscii_r.meniscus_med_r.torque.Z	femur_med_tibia_r.tibia_upper_r.force.X	femur_med_tibia_r.tibia_upper_r.force.Y	femur_med_tibia_r.tibia_upper_r.force.Z	femur_med_tibia_r.tibia_upper_r.torque.X	femur_med_tibia_r.tibia_upper_r.torque.Y	femur_med_tibia_r.tibia_upper_r.torque.Z	femur_med_tibia_r.femur_med_r.force.X	femur_med_tibia_r.femur_med_r.force.Y	femur_med_tibia_r.femur_med_r.force.Z	femur_med_tibia_r.femur_med_r.torque.X	femur_med_tibia_r.femur_med_r.torque.Y	femur_med_tibia_r.femur_med_r.torque.Z	femur_lat_tibia_r.tibia_upper_r.force.X	femur_lat_tibia_r.tibia_upper_r.force.Y	femur_lat_tibia_r.tibia_upper_r.force.Z	femur_lat_tibia_r.tibia_upper_r.torque.X	femur_lat_tibia_r.tibia_upper_r.torque.Y	femur_lat_tibia_r.tibia_upper_r.torque.Z	femur_lat_tibia_r.femur_lat_r.force.X	femur_lat_tibia_r.femur_lat_r.force.Y	femur_lat_tibia_r.femur_lat_r.force.Z	femur_lat_tibia_r.femur_lat_r.torque.X	femur_lat_tibia_r.femur_lat_r.torque.Y	femur_lat_tibia_r.femur_lat_r.torque.Z	aACL_R	pACL_R	aPCL_R	pPCL_R	aMCL_R	mMCL_R	pMCL_R	aLCL_R	mLCL_R	pLCL_R	aPCL_L	pPCL_L	aMCL_L	aLCL_L
      0.07818193	     19.99093415	     30.86556755	    145.37096345	      6.20884032	      7.01523098	     13.10746127	    214.57437887	    168.96373033	    342.83190562	    297.27605012	     95.30506751	     11.73307688	     10.23228169	     21.95641783	     18.23216893	     85.89289141	      0.00000000	      3.96696136	     92.06188262	     13.89840872	     20.88823051	     62.33787882	     12.89847509	     12.39657513	    190.10294143	     37.63286670	     76.14296376	     18.05880740	     40.52978364	     44.76785886	     60.49166592	     41.94580715	      7.17224969	      0.00000000	      0.00000000	      1.82358564	      0.75632990	     36.58798932	      6.80174178	     15.58689712	     11.65879606	     21.48193673	      6.54501916	     20.05924918	     14.17485032	     15.33238388	      6.41650100	      7.30337341	      8.46959894	     25.52706902	     10.78501361	     22.08280714	     17.75865230	      3.65269713	     14.18458579	      9.91333545	      7.27709036	      6.24090437	     10.81687336	      8.33008044	      5.43612900	      3.80286308	      9.18409220	     13.98236366	     10.57586878	     38.43397848	     30.90749946	      8.91558054	      5.45964225	     12.42332189	     30.45197488	     16.93773188	     19.69369876	     21.17710932	     44.11010001	     20.53866681	     94.68007160	     70.19792650	     10.13111444	      9.97143294	     23.65346984	     12.83677331	     30.82058965	      4.77144273	     15.66710888	      4.89832984	     60.46116761	     60.46116761	     23.27498838	     23.27498838	     39.86130317	     39.86130317	   -278.42698498	     20.45359229	     29.68294224	     -0.58451820	    -18.86575365	      6.97908685	    278.42698498	    -20.45359229	    -29.68294224	      0.95089124	      7.95830952	      3.97348498	    -73.20510764	    -28.27965864	     17.97909705	     -0.71297830	     -5.58214374	    -11.69569588	     73.20510764	     28.27965864	    -17.97909705	      0.86978440	     -1.17733890	      1.70204301	    773.33147222	   -149.04917094	    134.81914489	     -3.84524936	    -17.60238064	      2.67869301	   -773.33147222	    149.04917094	   -134.81914489	      2.56853792	     70.40632232	     63.02195262	    164.19543212	    -34.76622164	    -41.60217140	      1.38511122	      5.45046881	      0.91487765	   -164.19543212	     34.76622164	     41.60217140	     -0.86185568	    -21.09968031	     14.22808494	      1.21177881	    -20.65918512	     38.87421043	     76.98378265	      0.00000000	      0.00000000	      0.00000000	      0.00000000	      0.00000000	      0.00000000	      0.00000000	      0.00000000	      0.00000001	      0.00000000
      0.07899846	     19.85323744	     30.77930013	    145.30081400	      6.16901293	      6.96924126	     13.05271936	    212.60921142	    168.67463105	    338.05740455	    293.91570437	     95.46336692	     11.65477213	     10.16713895	     21.89959244	     18.17872513	     85.83521808	      0.00000000	      3.94139372	     92.50502328	     13.80477746	     20.74733775	     62.26515580	     12.81220317	     12.31191564	    190.06903741	     37.61487641	     76.09048178	     18.11410727	     40.85484141	     34.61305251	     60.05288739	     42.55871416	      6.87263832	      0.00000000	      0.00000000	      1.62397568	      0.59588668	     36.36770458	      6.96907257	     15.40820476	     10.57956712	     21.52606982	      6.50831770	     19.92107077	     14.08077271	     15.22969787	      6.37531468	      7.25776095	      8.41128631	     25.35231687	     10.71085143	     21.92973084	     17.64236843	      3.62935053	     14.08962814	      9.85024208	      7.22882094	      6.19880533	     10.74187313	      8.28413639	      5.40098786	      3.77818296	      9.12264168	     13.88873932	     10.50444769	     38.25642456	     30.70696524	      8.85729781	      5.43024933	     12.33838659	     30.24030418	     16.82207250	     19.55831063	     21.03094722	     43.81582956	     20.40099062	     94.03110730	     69.90235711	     10.05797149	      9.89846493	     23.48881890	     12.74723443	     30.62294676	      4.74050156	     15.56384076	      4.86588806	     60.07234086	     60.07234086	     23.11676197	     23.11676197	     39.71357881	     39.71357881	   -280.52244297	     18.60756194	     28.19755765	     -0.53130137	    -18.28781684	      6.14636988	    280.52244297	    -18.60756194	    -28.19755765	      0.88215563	      7.94118704	      4.17183045	    -74.62927085	    -27.09361200	     19.11089523	     -0.68229563	     -6.01490942	    -11.20191676	     74.62927085	     27.09361200	    -19.11089523	      0.85797506	     -1.17819260	      1.69025940	    781.12144134	   -160.54038365	    135.80795536	     -4.08977300	    -17.78686933	      2.55614541	   -781.12144134	    160.54038365	   -135.80795536	      2.79128891	     70.95485884	     67.76288100	    153.50951149	    -32.72657806	    -38.69669033	      1.30702200	      5.07705488	      0.89409372	   -153.50951149	     32.72657806	     38.69669033	     -0.81428137	    -19.63825640	     13.37530935	     -0.96763533	    -22.11609285	     40.02787489	     79.55290349	      0.00000000	      0.00000000	      0.00000000	      0.00000000	      0.00000000	      0.00000000	      0.00000000	      0.00000000	      0.00000001	      0.00000000
      0.07973330	     19.73064176	     30.70252447	    145.23837082	      6.13355778	      6.92830301	     13.00400696	    210.97788880	    168.39596164	    333.41391129	    290.79601177	     95.62027372	     11.58507222	     10.10914568	     21.84902089	     18.13116961	     85.78389982	      0.00000000	      3.91863406	     92.88045627	     13.72143137	     20.62192211	     62.20043812	     12.73541840	     12.23656384	    190.03885415	     37.59886549	     76.04381001	     18.14698932	     42.59767616	     44.52493780	     60.89789319	     43.15962550	      6.60610135	      0.00000000	      0.00000000	      1.43995679	      0.45240768	     36.17536270	      7.17513519	     15.31014450	     11.86435886	     21.57183013	      6.47566484	     19.79804611	     13.99703010	     15.13829368	      6.33864987	      7.21716055	      8.35937064	     25.19648936	     10.64482784	     21.79330392	     17.53885786	      3.60856659	     14.00510274	      9.79407322	      7.18585544	      6.16133231	     10.67508280	      8.24318299	      5.36970566	      3.75621309	      9.06794555	     13.80540479	     10.44087371	     38.09841582	     30.52844483	      8.80541649	      5.40408729	     12.26262547	     30.05168756	     16.71912542	     19.43779144	     20.90084169	     43.55312296	     20.27809115	     93.45223720	     69.63859691	      9.99297313	      9.83364372	     23.34214475	     12.66742056	     30.44697772	      4.71296073	     15.47127116	      4.83678765	     59.72620230	     59.72620230	     22.97591319	     22.97591319	     39.58213073	     39.58213073	   -279.90332367	     16.50792345	     27.13731122	     -0.45726352	    -17.82665516	      5.22055032	    279.90332367	    -16.50792345	    -27.13731122	      0.79645449	      7.87573913	      4.33123014	    -75.04609529	    -25.59141942	     19.89915307	     -0.64180603	     -6.32822140	    -10.58164429	     75.04609529	     25.59141942	    -19.89915307	      0.83269803	     -1.16828833	      1.66063016	    787.46635604	   -171.88223209	    135.32392107	     -4.30939698	    -17.88502181	      2.40297057	   -787.46635604	    171.88223209	   -135.32392107	      3.00793742	     70.85587659	     72.45152886	    143.75934024	    -31.28121331	    -36.64701523	      1.25265409	      4.76354237	      0.85168630	   -143.75934024	     31.28121331	     36.64701523	     -0.78081184	    -18.56087488	     12.77640943	     -1.75003736	    -22.18389812	     42.30244309	     83.64332125	      0.00000000	      0.00000000	      0.00000000	      0.00000000	      0.00000000	      0.00000000	      0.00000000	      0.00000000	      0.00000001	      0.00000000
      0.08034676	     19.62924945	     30.63904897	    145.18673623	      6.10423763	      6.89445047	     12.96373803	    209.68790642	    168.20943832	    329.43995583	    288.44894119	     95.80134012	     11.52743907	     10.06118594	     21.80721112	     18.09185810	     85.74147828	      0.00000000	      3.89981346	     93.22083243	     13.65251181	     20.51821516	     62.14693442	     12.67193185	     12.17426080	    190.01389274	     37.58562815	     76.00524892	     18.23372414	     33.63820064	     42.78234653	     59.73114557	     43.72325081	      6.39444093	      0.00000000	      0.00000000	      1.28504325	      0.33496893	     36.00888620	      7.38198912	     15.26745228	     11.04682909	     21.61088820	      6.44804315	     19.69629891	     13.92778314	     15.06271219	      6.30832942	      7.18358885	      8.31643528	     25.06744485	     10.59022696	     21.68037598	     17.45326382	      3.59137877	     13.93520896	      9.74762222	      7.15032804	      6.13034669	     10.61983349	      8.20927971	      5.34383721	      3.73804541	      9.02271987	     13.73649863	     10.38830510	     37.96778668	     30.38081597	      8.76251474	      5.38245541	     12.19986936	     29.89558155	     16.63400322	     19.33813150	     20.79325788	     43.33535790	     20.17622288	     92.97273300	     69.42004090	      9.93930373	      9.78013559	     23.22078248	     12.60134486	     30.30144202	      4.69018818	     15.39428023	      4.81257198	     59.43996003	     59.43996003	     22.85944205	     22.85944205	     39.47347042	     39.47347042	   -283.91724448	     17.25864896	     26.75723405	     -0.48234806	    -17.78311879	      5.50533422	    283.91724448	    -17.25864896	    -26.75723405	      0.82139535	      7.97679934	      4.41741026	    -75.68459418	    -24.28530683	     20.68392472	     -0.60585424	     -6.63548505	    -10.04050313	     75.68459418	     24.28530683	    -20.68392472	      0.81109569	     -1.16226306	      1.63604932	    789.28711175	   -178.96122939	    135.09310518	     -4.46086081	    -17.92065074	      2.33814403	   -789.28711175	    178.96122939	   -135.09310518	      3.15110655	     70.78953566	     75.35088963	    134.27973078	    -29.57184994	    -33.89864289	      1.18067714	      4.43225355	      0.81417235	   -134.27973078	     29.57184994	     33.89864289	     -0.73949508	    -17.19641877	     12.06840199	     -3.14715411	    -22.89144118	     45.18139974	     88.55316335	      0.00000000	      0.00000000	      0.00000000	      0.00000000	      0.00000000	      0.00000000	      0.00000000	      0.00000000	      0.00000001	      0.00000000
